# xmcd
#
# Track frame offsets:
#	150
#	22292
#	44226
#	67298
#	88890
#	106113
#	128728
#	157268
#	181726
#	205362
#
# Disc length: 2994 seconds
#
# Revision: 1
# Processed by: cddbd v1.4PL0 Copyright (c) Steve Scherf et al.
# Submitted via: audiograbber 1.82.01
#
DISCID=9a0bb00a
DTITLE=Hany Shaker - Bahebak Ana
DYEAR=1900
DGENRE=
TTITLE0=Bahebak Ana
TTITLE1=Ajmal Ma Fi El Donia
TTITLE2=Ella Dmou3ik Inty
TTITLE3=Lessa Btes2ali
TTITLE4=Da3wet Farah
TTITLE5=Law Chaghalouni
TTITLE6=Motaham
TTITLE7=Ma Lish Ghayrha
TTITLE8=Bad3ilik Tensani
TTITLE9=Tegdary
EXTD=
EXTT0=
EXTT1=
EXTT2=
EXTT3=
EXTT4=
EXTT5=
EXTT6=
EXTT7=
EXTT8=
EXTT9=
PLAYORDER=
